# xmcd
#
# Track frame offsets:
#	150
#	11378
#	28456
#	42777
#	56450
#	67292
#	80012
#	93828
#	107630
#	120774
#	135058
#	148934
#	164803
#	178593
#	188780
#	202747
#	214844
#	225208
#	240211
#	250669
#	262038
#	274200
#	284644
#	299894
#	314105
#	327264
#
# Disc length: 4530 seconds
#
# Revision: 1
# Processed by: cddbd v1.5.2PL0 Copyright (c) Steve Scherf et al.
# Submitted via: audiograbber 1.83.01
#
DISCID=8311b01a
DTITLE=Dolly Parton - Dolly (Box Set)(CD 2)
DYEAR=2009
DGENRE=Country
TTITLE0=Just The Way I Am
TTITLE1=Down From Dover
TTITLE2=Everything Is Beautiful (In It's Own Way)(Previously Unreleased)
TTITLE3=Daddy Come And Get Me
TTITLE4=Just Someone That I Used To Know (With Porter Wagoner)
TTITLE5=Tomorrow Is Forever (With Porter Wagoner)
TTITLE6=Daddy Was An Old Time Preacher Man (With Porter Wagoner)
TTITLE7=Comin' For To Carry Me Home
TTITLE8=The Golden Streets Of Glory
TTITLE9=Mule Skinner Blues (Blue Yodel No. 8)
TTITLE10=Joshua
TTITLE11=Daddy's Moonshine Still
TTITLE12=The Last One To Touch Me
TTITLE13=Better Move It On Home (With Porter Wagoner)
TTITLE14=Coat Of Many Colors
TTITLE15=Travelling Man
TTITLE16=My Blue Tears
TTITLE17=Here I Am
TTITLE18=God's Coloring Book (Previously Unreleased)
TTITLE19=Will He Be Waiting
TTITLE20=Touch Your Woman
TTITLE21=Together Always (With Porter Wagoner)
TTITLE22=Lost Forever In Your Kiss (With Porter Wagoner)
TTITLE23=My Tennessee Mountain Home
TTITLE24=Eugene Oregon (Previously Unreleased)
TTITLE25=What Will Baby Be (Previously Unreleased)
EXTD=
EXTT0=
EXTT1=
EXTT2=
EXTT3=
EXTT4=
EXTT5=
EXTT6=
EXTT7=
EXTT8=
EXTT9=
EXTT10=
EXTT11=
EXTT12=
EXTT13=
EXTT14=
EXTT15=
EXTT16=
EXTT17=
EXTT18=
EXTT19=
EXTT20=
EXTT21=
EXTT22=
EXTT23=
EXTT24=
EXTT25=
PLAYORDER=
